<svg width="77" height="141" viewBox="0 0 77 141" fill="none" xmlns="http://www.w3.org/2000/svg">
<path d="M0.705663 0C25.4557 0 50.2057 0 75.7057 0C73.7257 2.31 71.7457 4.62 69.7057 7C68.0354 8.99702 66.3675 10.996 64.7057 13C65.5197 13.4544 65.5197 13.4544 66.3502 13.918C74.0407 18.4214 74.0407 18.4214 75.7057 23C76.4058 27.7772 76.1991 31.0485 73.9557 35.375C71.9751 37.6856 70.3067 39.4394 67.7057 41C67.0457 41 66.3857 41 65.7057 41C65.7057 41.66 65.7057 42.32 65.7057 43C66.4482 43.2269 67.1907 43.4538 67.9557 43.6875C71.7971 45.5209 73.8205 48.2298 75.7057 52C76.3935 56.8249 76.3115 60.7682 73.5182 64.875C71.2747 67.6376 68.9319 69.433 65.7057 71C66.7885 71.5569 66.7885 71.5569 67.8932 72.125C71.9101 74.803 75.1536 77.3444 76.1588 82.1797C76.4128 87.5691 75.2887 90.8198 71.7057 95C69.2966 97.117 67.7743 97.9771 64.7057 99C65.7782 99.5362 66.8507 100.073 67.9557 100.625C71.7583 102.839 73.7916 104.942 75.7057 109C76.636 113.81 76.3051 117.706 73.6432 121.875C70.8369 125.351 67.8919 126.605 63.7057 128C67.3915 132.535 71.1666 136.326 75.7057 140C75.7057 140.33 75.7057 140.66 75.7057 141C50.9557 141 26.2057 141 0.705663 141C4.30807 136.197 7.83357 131.555 11.7057 127C11.0044 126.979 10.3032 126.959 9.58066 126.938C5.2021 125.51 2.85739 123.048 0.705663 119C-0.329884 114.323 -0.465749 110.047 1.95957 105.809C4.31893 102.976 6.6282 101.052 9.70566 99C8.77754 98.4431 7.84941 97.8863 6.89316 97.3125C3.54259 94.8817 2.1726 93.8303 0.705663 90C0.0960941 85.5705 -0.35098 81.1217 1.69004 77.0234C3.97869 74.1556 6.43314 72.5174 9.70566 71C9.13976 70.5179 8.57387 70.0358 7.99082 69.5391C6.8906 68.5916 6.8906 68.5916 5.76816 67.625C5.03726 66.9985 4.30637 66.372 3.55332 65.7266C1.32351 63.6429 0.769727 62.6427 0.467382 59.6094C0.309678 53.5336 0.455868 49.7355 4.70566 45C7.70566 43 7.70566 43 11.7057 43C11.7057 42.34 11.7057 41.68 11.7057 41C10.9838 40.9381 10.2619 40.8763 9.51816 40.8125C5.82768 39.7464 4.20994 37.8521 1.70566 35C-0.297563 30.9935 0.084065 26.3452 0.705663 22C2.18712 18.9577 3.91709 16.9175 6.70566 15C10.5807 14.0625 10.5807 14.0625 13.7057 14C10.0845 10.2657 6.276 6.88211 2.27988 3.55078C1.76039 3.03902 1.2409 2.52727 0.705663 2C0.705663 1.34 0.705663 0.68 0.705663 0Z" fill="#FCFCFC"/>
</svg>
